<mxfile host="app.diagrams.net" modified="2022-05-06T15:09:32.731Z" agent="5.0 (Windows NT 10.0; Win64; x64) AppleWebKit/537.36 (KHTML, like Gecko) Chrome/101.0.4951.41 Safari/537.36 Edg/101.0.1210.32" etag="R8thEkM1DCiIfIyQCOZp" version="18.0.0" type="github">
  <diagram id="C5RBs43oDa-KdzZeNtuy" name="Page-1">
    <mxGraphModel dx="1865" dy="547" grid="1" gridSize="10" guides="1" tooltips="1" connect="1" arrows="1" fold="1" page="1" pageScale="1" pageWidth="827" pageHeight="1169" math="0" shadow="0">
      <root>
        <mxCell id="WIyWlLk6GJQsqaUBKTNV-0" />
        <mxCell id="WIyWlLk6GJQsqaUBKTNV-1" parent="WIyWlLk6GJQsqaUBKTNV-0" />
        <mxCell id="hNW3pUml-DLnn2sBiEHX-16" value="试用" style="ellipse;whiteSpace=wrap;html=1;rounded=0;" parent="WIyWlLk6GJQsqaUBKTNV-1" vertex="1">
          <mxGeometry x="-435.5" y="230" width="70" height="40" as="geometry" />
        </mxCell>
        <mxCell id="hNW3pUml-DLnn2sBiEHX-17" value="合租" style="ellipse;whiteSpace=wrap;html=1;rounded=0;" parent="WIyWlLk6GJQsqaUBKTNV-1" vertex="1">
          <mxGeometry x="-345.5" y="230" width="70" height="40" as="geometry" />
        </mxCell>
        <mxCell id="hNW3pUml-DLnn2sBiEHX-18" value="取消" style="ellipse;whiteSpace=wrap;html=1;rounded=0;" parent="WIyWlLk6GJQsqaUBKTNV-1" vertex="1">
          <mxGeometry x="-393" y="170" width="70" height="40" as="geometry" />
        </mxCell>
        <mxCell id="hNW3pUml-DLnn2sBiEHX-19" value="归档" style="ellipse;whiteSpace=wrap;html=1;rounded=0;" parent="WIyWlLk6GJQsqaUBKTNV-1" vertex="1">
          <mxGeometry x="-488" y="170" width="70" height="40" as="geometry" />
        </mxCell>
        <mxCell id="hNW3pUml-DLnn2sBiEHX-20" value="使用" style="ellipse;whiteSpace=wrap;html=1;rounded=0;" parent="WIyWlLk6GJQsqaUBKTNV-1" vertex="1">
          <mxGeometry x="-530.5" y="230" width="70" height="40" as="geometry" />
        </mxCell>
        <mxCell id="hNW3pUml-DLnn2sBiEHX-21" value="激活时间" style="rounded=1;whiteSpace=wrap;html=1;" parent="WIyWlLk6GJQsqaUBKTNV-1" vertex="1">
          <mxGeometry x="-610" y="430" width="80" height="40" as="geometry" />
        </mxCell>
        <mxCell id="hNW3pUml-DLnn2sBiEHX-22" value="首次付款" style="rounded=1;whiteSpace=wrap;html=1;" parent="WIyWlLk6GJQsqaUBKTNV-1" vertex="1">
          <mxGeometry x="-418" y="430" width="80" height="40" as="geometry" />
        </mxCell>
        <mxCell id="hNW3pUml-DLnn2sBiEHX-23" value="上次付款" style="rounded=1;whiteSpace=wrap;html=1;" parent="WIyWlLk6GJQsqaUBKTNV-1" vertex="1">
          <mxGeometry x="-323" y="430" width="80" height="40" as="geometry" />
        </mxCell>
        <mxCell id="hNW3pUml-DLnn2sBiEHX-24" value="下次付款" style="rounded=1;whiteSpace=wrap;html=1;" parent="WIyWlLk6GJQsqaUBKTNV-1" vertex="1">
          <mxGeometry x="-233" y="430" width="80" height="40" as="geometry" />
        </mxCell>
        <mxCell id="hNW3pUml-DLnn2sBiEHX-25" value="月均花费" style="whiteSpace=wrap;html=1;rounded=0;" parent="WIyWlLk6GJQsqaUBKTNV-1" vertex="1">
          <mxGeometry x="-333" y="300" width="80" height="40" as="geometry" />
        </mxCell>
        <mxCell id="hNW3pUml-DLnn2sBiEHX-28" value="年均花费" style="whiteSpace=wrap;html=1;rounded=0;" parent="WIyWlLk6GJQsqaUBKTNV-1" vertex="1">
          <mxGeometry x="-333" y="350" width="80" height="40" as="geometry" />
        </mxCell>
        <mxCell id="hNW3pUml-DLnn2sBiEHX-29" value="周期金额" style="whiteSpace=wrap;html=1;rounded=0;" parent="WIyWlLk6GJQsqaUBKTNV-1" vertex="1">
          <mxGeometry x="-428" y="300" width="80" height="40" as="geometry" />
        </mxCell>
        <mxCell id="hNW3pUml-DLnn2sBiEHX-30" value="总计花费" style="whiteSpace=wrap;html=1;rounded=0;" parent="WIyWlLk6GJQsqaUBKTNV-1" vertex="1">
          <mxGeometry x="-233" y="320" width="80" height="40" as="geometry" />
        </mxCell>
        <mxCell id="hNW3pUml-DLnn2sBiEHX-34" value="实际付款" style="whiteSpace=wrap;html=1;rounded=0;" parent="WIyWlLk6GJQsqaUBKTNV-1" vertex="1">
          <mxGeometry x="-620" y="320" width="80" height="40" as="geometry" />
        </mxCell>
        <mxCell id="hNW3pUml-DLnn2sBiEHX-39" value="已用进度" style="shape=trapezoid;perimeter=trapezoidPerimeter;whiteSpace=wrap;html=1;fixedSize=1;rounded=0;" parent="WIyWlLk6GJQsqaUBKTNV-1" vertex="1">
          <mxGeometry x="-533" y="510" width="80" height="40" as="geometry" />
        </mxCell>
        <mxCell id="hNW3pUml-DLnn2sBiEHX-40" value="到期天数" style="shape=trapezoid;perimeter=trapezoidPerimeter;whiteSpace=wrap;html=1;fixedSize=1;rounded=0;" parent="WIyWlLk6GJQsqaUBKTNV-1" vertex="1">
          <mxGeometry x="-443" y="510" width="80" height="40" as="geometry" />
        </mxCell>
        <mxCell id="hNW3pUml-DLnn2sBiEHX-41" value="描述" style="shape=trapezoid;perimeter=trapezoidPerimeter;whiteSpace=wrap;html=1;fixedSize=1;rounded=0;" parent="WIyWlLk6GJQsqaUBKTNV-1" vertex="1">
          <mxGeometry x="-353" y="510" width="80" height="40" as="geometry" />
        </mxCell>
        <mxCell id="hNW3pUml-DLnn2sBiEHX-42" value="付款周期" style="whiteSpace=wrap;html=1;rounded=0;" parent="WIyWlLk6GJQsqaUBKTNV-1" vertex="1">
          <mxGeometry x="-428" y="350" width="80" height="40" as="geometry" />
        </mxCell>
        <mxCell id="hNW3pUml-DLnn2sBiEHX-43" value="试用天数" style="rounded=1;whiteSpace=wrap;html=1;" parent="WIyWlLk6GJQsqaUBKTNV-1" vertex="1">
          <mxGeometry x="-513" y="430" width="80" height="40" as="geometry" />
        </mxCell>
        <mxCell id="hNW3pUml-DLnn2sBiEHX-44" value="合租人数" style="whiteSpace=wrap;html=1;rounded=0;" parent="WIyWlLk6GJQsqaUBKTNV-1" vertex="1">
          <mxGeometry x="-528" y="300" width="80" height="40" as="geometry" />
        </mxCell>
        <mxCell id="hNW3pUml-DLnn2sBiEHX-45" value="合租人均收费" style="whiteSpace=wrap;html=1;rounded=0;" parent="WIyWlLk6GJQsqaUBKTNV-1" vertex="1">
          <mxGeometry x="-528" y="350" width="80" height="40" as="geometry" />
        </mxCell>
        <mxCell id="R6iBqLD09b7fv7r1drq2-0" value="" style="swimlane;startSize=0;rounded=0;" parent="WIyWlLk6GJQsqaUBKTNV-1" vertex="1">
          <mxGeometry x="-820" y="920" width="307" height="200" as="geometry">
            <mxRectangle x="-773" y="660" width="80" height="70" as="alternateBounds" />
          </mxGeometry>
        </mxCell>
        <mxCell id="R6iBqLD09b7fv7r1drq2-7" value="周期金额" style="whiteSpace=wrap;html=1;rounded=0;" parent="R6iBqLD09b7fv7r1drq2-0" vertex="1">
          <mxGeometry x="113.5" y="140" width="80" height="40" as="geometry" />
        </mxCell>
        <mxCell id="R6iBqLD09b7fv7r1drq2-8" value="合租" style="ellipse;whiteSpace=wrap;html=1;rounded=0;" parent="R6iBqLD09b7fv7r1drq2-0" vertex="1">
          <mxGeometry x="17" y="10" width="70" height="40" as="geometry" />
        </mxCell>
        <mxCell id="R6iBqLD09b7fv7r1drq2-9" value="实际付款" style="whiteSpace=wrap;html=1;rounded=0;" parent="R6iBqLD09b7fv7r1drq2-0" vertex="1">
          <mxGeometry x="113" y="70" width="80" height="40" as="geometry" />
        </mxCell>
        <mxCell id="R6iBqLD09b7fv7r1drq2-10" value="合租人数" style="whiteSpace=wrap;html=1;rounded=0;" parent="R6iBqLD09b7fv7r1drq2-0" vertex="1">
          <mxGeometry x="113" y="10" width="80" height="40" as="geometry" />
        </mxCell>
        <mxCell id="R6iBqLD09b7fv7r1drq2-11" value="合租人均收费" style="whiteSpace=wrap;html=1;rounded=0;" parent="R6iBqLD09b7fv7r1drq2-0" vertex="1">
          <mxGeometry x="217" y="10" width="80" height="40" as="geometry" />
        </mxCell>
        <mxCell id="R6iBqLD09b7fv7r1drq2-14" value="" style="swimlane;startSize=0;rounded=0;" parent="WIyWlLk6GJQsqaUBKTNV-1" vertex="1">
          <mxGeometry x="-506" y="920" width="200" height="200" as="geometry" />
        </mxCell>
        <mxCell id="R6iBqLD09b7fv7r1drq2-16" value="月均花费" style="whiteSpace=wrap;html=1;rounded=0;" parent="R6iBqLD09b7fv7r1drq2-14" vertex="1">
          <mxGeometry x="52.5" y="140" width="80" height="40" as="geometry" />
        </mxCell>
        <mxCell id="R6iBqLD09b7fv7r1drq2-17" value="周期金额" style="whiteSpace=wrap;html=1;rounded=0;" parent="R6iBqLD09b7fv7r1drq2-14" vertex="1">
          <mxGeometry x="15" y="10" width="80" height="40" as="geometry" />
        </mxCell>
        <mxCell id="R6iBqLD09b7fv7r1drq2-18" value="付款周期" style="whiteSpace=wrap;html=1;rounded=0;" parent="R6iBqLD09b7fv7r1drq2-14" vertex="1">
          <mxGeometry x="103" y="10" width="80" height="40" as="geometry" />
        </mxCell>
        <mxCell id="R6iBqLD09b7fv7r1drq2-15" value="" style="swimlane;startSize=0;rounded=0;" parent="WIyWlLk6GJQsqaUBKTNV-1" vertex="1">
          <mxGeometry x="-286" y="920" width="200" height="200" as="geometry" />
        </mxCell>
        <mxCell id="R6iBqLD09b7fv7r1drq2-19" value="年均花费" style="whiteSpace=wrap;html=1;rounded=0;" parent="R6iBqLD09b7fv7r1drq2-15" vertex="1">
          <mxGeometry x="60" y="140" width="80" height="40" as="geometry" />
        </mxCell>
        <mxCell id="R6iBqLD09b7fv7r1drq2-20" value="月均花费" style="whiteSpace=wrap;html=1;rounded=0;" parent="R6iBqLD09b7fv7r1drq2-15" vertex="1">
          <mxGeometry x="60" y="10" width="80" height="40" as="geometry" />
        </mxCell>
        <mxCell id="R6iBqLD09b7fv7r1drq2-21" value="" style="swimlane;startSize=0;rounded=0;" parent="WIyWlLk6GJQsqaUBKTNV-1" vertex="1">
          <mxGeometry x="-73" y="920" width="200" height="200" as="geometry" />
        </mxCell>
        <mxCell id="R6iBqLD09b7fv7r1drq2-22" value="总计花费" style="whiteSpace=wrap;html=1;rounded=0;" parent="R6iBqLD09b7fv7r1drq2-21" vertex="1">
          <mxGeometry x="60" y="140" width="80" height="40" as="geometry" />
        </mxCell>
        <mxCell id="A5qGSlLvOMLkl97b7kZK-0" value="首次付款" style="rounded=1;whiteSpace=wrap;html=1;" vertex="1" parent="R6iBqLD09b7fv7r1drq2-21">
          <mxGeometry x="23" y="10" width="80" height="40" as="geometry" />
        </mxCell>
        <mxCell id="A5qGSlLvOMLkl97b7kZK-1" value="下次付款" style="rounded=1;whiteSpace=wrap;html=1;" vertex="1" parent="R6iBqLD09b7fv7r1drq2-21">
          <mxGeometry x="113" y="10" width="80" height="40" as="geometry" />
        </mxCell>
        <mxCell id="A5qGSlLvOMLkl97b7kZK-2" value="周期金额" style="whiteSpace=wrap;html=1;rounded=0;" vertex="1" parent="R6iBqLD09b7fv7r1drq2-21">
          <mxGeometry x="23" y="70" width="80" height="40" as="geometry" />
        </mxCell>
        <mxCell id="A5qGSlLvOMLkl97b7kZK-3" value="付款周期" style="whiteSpace=wrap;html=1;rounded=0;" vertex="1" parent="R6iBqLD09b7fv7r1drq2-21">
          <mxGeometry x="113" y="70" width="80" height="40" as="geometry" />
        </mxCell>
        <mxCell id="R6iBqLD09b7fv7r1drq2-24" value="" style="swimlane;startSize=0;rounded=0;" parent="WIyWlLk6GJQsqaUBKTNV-1" vertex="1">
          <mxGeometry x="-506" y="700" width="200" height="200" as="geometry" />
        </mxCell>
        <mxCell id="R6iBqLD09b7fv7r1drq2-25" value="使用" style="ellipse;whiteSpace=wrap;html=1;rounded=0;" parent="R6iBqLD09b7fv7r1drq2-24" vertex="1">
          <mxGeometry x="65" y="150" width="70" height="40" as="geometry" />
        </mxCell>
        <mxCell id="A5qGSlLvOMLkl97b7kZK-4" value="now" style="rhombus;whiteSpace=wrap;html=1;rounded=0;" vertex="1" parent="R6iBqLD09b7fv7r1drq2-24">
          <mxGeometry x="106" y="20" width="80" height="80" as="geometry" />
        </mxCell>
        <mxCell id="A5qGSlLvOMLkl97b7kZK-5" value="下次付款" style="rounded=1;whiteSpace=wrap;html=1;" vertex="1" parent="R6iBqLD09b7fv7r1drq2-24">
          <mxGeometry x="18" y="80" width="80" height="40" as="geometry" />
        </mxCell>
        <mxCell id="A5qGSlLvOMLkl97b7kZK-32" value="取消" style="ellipse;whiteSpace=wrap;html=1;rounded=0;" vertex="1" parent="R6iBqLD09b7fv7r1drq2-24">
          <mxGeometry x="23" y="20" width="70" height="40" as="geometry" />
        </mxCell>
        <mxCell id="R6iBqLD09b7fv7r1drq2-26" value="" style="swimlane;startSize=0;rounded=0;" parent="WIyWlLk6GJQsqaUBKTNV-1" vertex="1">
          <mxGeometry x="-73" y="700" width="200" height="200" as="geometry" />
        </mxCell>
        <mxCell id="R6iBqLD09b7fv7r1drq2-30" value="合租" style="ellipse;whiteSpace=wrap;html=1;rounded=0;" parent="R6iBqLD09b7fv7r1drq2-26" vertex="1">
          <mxGeometry x="65" y="150" width="70" height="40" as="geometry" />
        </mxCell>
        <mxCell id="R6iBqLD09b7fv7r1drq2-31" value="合租人数" style="whiteSpace=wrap;html=1;rounded=0;" parent="R6iBqLD09b7fv7r1drq2-26" vertex="1">
          <mxGeometry x="60" y="20" width="80" height="40" as="geometry" />
        </mxCell>
        <mxCell id="R6iBqLD09b7fv7r1drq2-27" value="" style="swimlane;startSize=0;rounded=0;" parent="WIyWlLk6GJQsqaUBKTNV-1" vertex="1">
          <mxGeometry x="-286" y="700" width="200" height="200" as="geometry" />
        </mxCell>
        <mxCell id="R6iBqLD09b7fv7r1drq2-29" value="试用" style="ellipse;whiteSpace=wrap;html=1;rounded=0;" parent="R6iBqLD09b7fv7r1drq2-27" vertex="1">
          <mxGeometry x="56" y="150" width="70" height="40" as="geometry" />
        </mxCell>
        <mxCell id="R6iBqLD09b7fv7r1drq2-32" value="试用天数" style="rounded=1;whiteSpace=wrap;html=1;" parent="R6iBqLD09b7fv7r1drq2-27" vertex="1">
          <mxGeometry x="16" y="10" width="80" height="40" as="geometry" />
        </mxCell>
        <mxCell id="A5qGSlLvOMLkl97b7kZK-6" value="激活时间" style="rounded=1;whiteSpace=wrap;html=1;" vertex="1" parent="R6iBqLD09b7fv7r1drq2-27">
          <mxGeometry x="106" y="10" width="80" height="40" as="geometry" />
        </mxCell>
        <mxCell id="A5qGSlLvOMLkl97b7kZK-7" value="now" style="rhombus;whiteSpace=wrap;html=1;rounded=0;" vertex="1" parent="R6iBqLD09b7fv7r1drq2-27">
          <mxGeometry x="51" y="60" width="80" height="80" as="geometry" />
        </mxCell>
        <mxCell id="R6iBqLD09b7fv7r1drq2-34" value="" style="swimlane;startSize=0;rounded=0;" parent="WIyWlLk6GJQsqaUBKTNV-1" vertex="1">
          <mxGeometry x="-506" y="1140" width="200" height="200" as="geometry" />
        </mxCell>
        <mxCell id="R6iBqLD09b7fv7r1drq2-37" value="首次付款" style="rounded=1;whiteSpace=wrap;html=1;" parent="R6iBqLD09b7fv7r1drq2-34" vertex="1">
          <mxGeometry x="53" y="140" width="80" height="40" as="geometry" />
        </mxCell>
        <mxCell id="A5qGSlLvOMLkl97b7kZK-9" value="激活时间" style="rounded=1;whiteSpace=wrap;html=1;" vertex="1" parent="R6iBqLD09b7fv7r1drq2-34">
          <mxGeometry x="113" y="80" width="80" height="40" as="geometry" />
        </mxCell>
        <mxCell id="A5qGSlLvOMLkl97b7kZK-10" value="试用天数" style="rounded=1;whiteSpace=wrap;html=1;" vertex="1" parent="R6iBqLD09b7fv7r1drq2-34">
          <mxGeometry x="13" y="80" width="80" height="40" as="geometry" />
        </mxCell>
        <mxCell id="A5qGSlLvOMLkl97b7kZK-11" value="试用" style="ellipse;whiteSpace=wrap;html=1;rounded=0;" vertex="1" parent="R6iBqLD09b7fv7r1drq2-34">
          <mxGeometry x="65" y="29" width="70" height="40" as="geometry" />
        </mxCell>
        <mxCell id="R6iBqLD09b7fv7r1drq2-35" value="" style="swimlane;startSize=0;rounded=0;" parent="WIyWlLk6GJQsqaUBKTNV-1" vertex="1">
          <mxGeometry x="-286" y="1140" width="200" height="200" as="geometry" />
        </mxCell>
        <mxCell id="R6iBqLD09b7fv7r1drq2-38" value="上次付款" style="rounded=1;whiteSpace=wrap;html=1;" parent="R6iBqLD09b7fv7r1drq2-35" vertex="1">
          <mxGeometry x="26" y="160" width="80" height="40" as="geometry" />
        </mxCell>
        <mxCell id="A5qGSlLvOMLkl97b7kZK-12" value="取消" style="ellipse;whiteSpace=wrap;html=1;rounded=0;" vertex="1" parent="R6iBqLD09b7fv7r1drq2-35">
          <mxGeometry x="111" y="10" width="70" height="40" as="geometry" />
        </mxCell>
        <mxCell id="A5qGSlLvOMLkl97b7kZK-13" value="归档" style="ellipse;whiteSpace=wrap;html=1;rounded=0;" vertex="1" parent="R6iBqLD09b7fv7r1drq2-35">
          <mxGeometry x="16" y="10" width="70" height="40" as="geometry" />
        </mxCell>
        <mxCell id="A5qGSlLvOMLkl97b7kZK-14" value="now" style="rhombus;whiteSpace=wrap;html=1;rounded=0;" vertex="1" parent="R6iBqLD09b7fv7r1drq2-35">
          <mxGeometry x="11" y="60" width="80" height="80" as="geometry" />
        </mxCell>
        <mxCell id="A5qGSlLvOMLkl97b7kZK-15" value="首次付款" style="rounded=1;whiteSpace=wrap;html=1;" vertex="1" parent="R6iBqLD09b7fv7r1drq2-35">
          <mxGeometry x="106" y="60" width="80" height="40" as="geometry" />
        </mxCell>
        <mxCell id="A5qGSlLvOMLkl97b7kZK-16" value="付款周期" style="whiteSpace=wrap;html=1;rounded=0;" vertex="1" parent="R6iBqLD09b7fv7r1drq2-35">
          <mxGeometry x="106" y="110" width="80" height="40" as="geometry" />
        </mxCell>
        <mxCell id="R6iBqLD09b7fv7r1drq2-36" value="" style="swimlane;startSize=0;rounded=0;" parent="WIyWlLk6GJQsqaUBKTNV-1" vertex="1">
          <mxGeometry x="-70" y="1140" width="200" height="200" as="geometry" />
        </mxCell>
        <mxCell id="R6iBqLD09b7fv7r1drq2-39" value="下次付款" style="rounded=1;whiteSpace=wrap;html=1;" parent="R6iBqLD09b7fv7r1drq2-36" vertex="1">
          <mxGeometry x="52" y="150" width="80" height="40" as="geometry" />
        </mxCell>
        <mxCell id="A5qGSlLvOMLkl97b7kZK-17" value="上次付款" style="rounded=1;whiteSpace=wrap;html=1;" vertex="1" parent="R6iBqLD09b7fv7r1drq2-36">
          <mxGeometry x="20" y="100" width="80" height="40" as="geometry" />
        </mxCell>
        <mxCell id="A5qGSlLvOMLkl97b7kZK-18" value="付款周期" style="whiteSpace=wrap;html=1;rounded=0;" vertex="1" parent="R6iBqLD09b7fv7r1drq2-36">
          <mxGeometry x="110" y="100" width="80" height="40" as="geometry" />
        </mxCell>
        <mxCell id="A5qGSlLvOMLkl97b7kZK-19" value="归档" style="ellipse;whiteSpace=wrap;html=1;rounded=0;" vertex="1" parent="R6iBqLD09b7fv7r1drq2-36">
          <mxGeometry x="25" y="29" width="70" height="40" as="geometry" />
        </mxCell>
        <mxCell id="A5qGSlLvOMLkl97b7kZK-20" value="取消" style="ellipse;whiteSpace=wrap;html=1;rounded=0;" vertex="1" parent="R6iBqLD09b7fv7r1drq2-36">
          <mxGeometry x="115" y="29" width="70" height="40" as="geometry" />
        </mxCell>
        <mxCell id="R6iBqLD09b7fv7r1drq2-40" value="" style="swimlane;startSize=0;rounded=0;" parent="WIyWlLk6GJQsqaUBKTNV-1" vertex="1">
          <mxGeometry x="-513" y="1360" width="200" height="280" as="geometry" />
        </mxCell>
        <mxCell id="R6iBqLD09b7fv7r1drq2-43" value="已用进度" style="shape=trapezoid;perimeter=trapezoidPerimeter;whiteSpace=wrap;html=1;fixedSize=1;rounded=0;" parent="R6iBqLD09b7fv7r1drq2-40" vertex="1">
          <mxGeometry x="55" y="220" width="80" height="40" as="geometry" />
        </mxCell>
        <mxCell id="A5qGSlLvOMLkl97b7kZK-21" value="使用" style="ellipse;whiteSpace=wrap;html=1;rounded=0;" vertex="1" parent="R6iBqLD09b7fv7r1drq2-40">
          <mxGeometry x="68" y="10" width="70" height="40" as="geometry" />
        </mxCell>
        <mxCell id="A5qGSlLvOMLkl97b7kZK-22" value="上次付款" style="rounded=1;whiteSpace=wrap;html=1;" vertex="1" parent="R6iBqLD09b7fv7r1drq2-40">
          <mxGeometry x="13" y="70" width="80" height="40" as="geometry" />
        </mxCell>
        <mxCell id="A5qGSlLvOMLkl97b7kZK-23" value="下次付款" style="rounded=1;whiteSpace=wrap;html=1;" vertex="1" parent="R6iBqLD09b7fv7r1drq2-40">
          <mxGeometry x="106" y="70" width="80" height="40" as="geometry" />
        </mxCell>
        <mxCell id="A5qGSlLvOMLkl97b7kZK-24" value="now" style="rhombus;whiteSpace=wrap;html=1;rounded=0;" vertex="1" parent="R6iBqLD09b7fv7r1drq2-40">
          <mxGeometry x="58" y="120" width="80" height="80" as="geometry" />
        </mxCell>
        <mxCell id="R6iBqLD09b7fv7r1drq2-41" value="" style="swimlane;startSize=0;rounded=0;" parent="WIyWlLk6GJQsqaUBKTNV-1" vertex="1">
          <mxGeometry x="-286" y="1360" width="200" height="200" as="geometry" />
        </mxCell>
        <mxCell id="R6iBqLD09b7fv7r1drq2-44" value="到期天数" style="shape=trapezoid;perimeter=trapezoidPerimeter;whiteSpace=wrap;html=1;fixedSize=1;rounded=0;" parent="R6iBqLD09b7fv7r1drq2-41" vertex="1">
          <mxGeometry x="60" y="150" width="80" height="40" as="geometry" />
        </mxCell>
        <mxCell id="A5qGSlLvOMLkl97b7kZK-25" value="使用" style="ellipse;whiteSpace=wrap;html=1;rounded=0;" vertex="1" parent="R6iBqLD09b7fv7r1drq2-41">
          <mxGeometry x="65" y="10" width="70" height="40" as="geometry" />
        </mxCell>
        <mxCell id="A5qGSlLvOMLkl97b7kZK-26" value="下次付款" style="rounded=1;whiteSpace=wrap;html=1;" vertex="1" parent="R6iBqLD09b7fv7r1drq2-41">
          <mxGeometry x="16" y="80" width="80" height="40" as="geometry" />
        </mxCell>
        <mxCell id="A5qGSlLvOMLkl97b7kZK-27" value="now" style="rhombus;whiteSpace=wrap;html=1;rounded=0;" vertex="1" parent="R6iBqLD09b7fv7r1drq2-41">
          <mxGeometry x="106" y="60" width="80" height="80" as="geometry" />
        </mxCell>
        <mxCell id="R6iBqLD09b7fv7r1drq2-42" value="" style="swimlane;startSize=0;rounded=0;" parent="WIyWlLk6GJQsqaUBKTNV-1" vertex="1">
          <mxGeometry x="-68" y="1360" width="200" height="200" as="geometry" />
        </mxCell>
        <mxCell id="R6iBqLD09b7fv7r1drq2-45" value="描述" style="shape=trapezoid;perimeter=trapezoidPerimeter;whiteSpace=wrap;html=1;fixedSize=1;rounded=0;" parent="R6iBqLD09b7fv7r1drq2-42" vertex="1">
          <mxGeometry x="58" y="140" width="80" height="40" as="geometry" />
        </mxCell>
        <mxCell id="A5qGSlLvOMLkl97b7kZK-28" value="月均花费" style="whiteSpace=wrap;html=1;rounded=0;" vertex="1" parent="R6iBqLD09b7fv7r1drq2-42">
          <mxGeometry x="13" y="30" width="80" height="40" as="geometry" />
        </mxCell>
        <mxCell id="A5qGSlLvOMLkl97b7kZK-30" value="付款周期" style="whiteSpace=wrap;html=1;rounded=0;" vertex="1" parent="R6iBqLD09b7fv7r1drq2-42">
          <mxGeometry x="108" y="30" width="80" height="40" as="geometry" />
        </mxCell>
        <mxCell id="A5qGSlLvOMLkl97b7kZK-31" value="分类" style="text;html=1;align=center;verticalAlign=middle;resizable=0;points=[];autosize=1;strokeColor=none;fillColor=none;" vertex="1" parent="R6iBqLD09b7fv7r1drq2-42">
          <mxGeometry x="68" y="100" width="40" height="20" as="geometry" />
        </mxCell>
        <mxCell id="R6iBqLD09b7fv7r1drq2-33" value="now" style="rhombus;whiteSpace=wrap;html=1;rounded=0;" parent="WIyWlLk6GJQsqaUBKTNV-1" vertex="1">
          <mxGeometry x="-120" y="350" width="80" height="80" as="geometry" />
        </mxCell>
      </root>
    </mxGraphModel>
  </diagram>
</mxfile>
